
<svg aria-hidden="true" style="position:absolute;width:0;height:0;overflow:hidden" xmlns="http://www.w3.org/2000/svg">
<defs>

     <!--LOGO-->

      <symbol id="icon-logo" viewBox="0 0 32 32">
             <path d="M18.152 11.045l0.596 0.437c0.044 0.030 0.080 0.068 0.107 0.113l0.001 0.002c0.032 0.052 0.051 0.115 0.051 0.182 0 0.098-0.040 0.186-0.104 0.25l-0 0-3.523 3.791c-0.043 0.047-0.104 0.076-0.173 0.076-0.049 0-0.095-0.015-0.133-0.041l0.001 0.001-0.136-0.096c-0.040-0.031-0.091-0.050-0.146-0.050s-0.106 0.019-0.146 0.050l0.001-0-1.903 1.694c1.35-0.16 2.69-0.402 4.011-0.724 2.271-0.584 4.263-1.507 6.035-2.727l-0.063 0.041s0.537 1.197 0.15 1.638c-1.615 1.883-9.129 3.538-11.672 3.139l-1.714 1.516-0.128-0.135 1.364-1.504c-0.088-0.034-0.165-0.080-0.232-0.135l0.001 0.001c-0.105-0.262-0.187-0.568-0.234-0.886l-0.003-0.023c0.598-0.027 1.119-0.062 1.637-0.11l-0.132 0.010 5.851-6.446c0.086-0.097 0.212-0.158 0.351-0.158 0.108 0 0.208 0.037 0.287 0.098l-0.001-0.001zM11.289 18.081c-0.025 0.042-0.041 0.093-0.041 0.148 0 0.041 0.008 0.080 0.024 0.115l-0.001-0.002c0.024 0.055 0.063 0.101 0.114 0.133s0.111 0.051 0.172 0.051c0.001 0 0.002 0 0.003 0 0.084 0 0.16-0.033 0.217-0.086l-0 0c0.055-0.053 0.090-0.128 0.090-0.21 0-0.028-0.004-0.055-0.011-0.081l0.001 0.002-0.003 0.003c-0.021-0.063-0.060-0.115-0.111-0.151l-0.001-0.001c-0.051-0.036-0.115-0.058-0.183-0.058-0 0-0 0-0.001 0h0c-0.002-0-0.003-0-0.005-0-0.108 0-0.204 0.053-0.262 0.135l-0.001 0.001zM15.438 5.884l0.724 0.948 0.351-0.013-0.758-1.008c0.202-0.067 0.378-0.195 0.503-0.366 0.117-0.179 0.173-0.39 0.16-0.603 0-0.003 0-0.008 0-0.012 0-0.298-0.138-0.563-0.354-0.736l-0.002-0.001c-0.221-0.157-0.496-0.252-0.793-0.252-0.044 0-0.088 0.002-0.131 0.006l0.005-0-1.152 0.004 0.099 3.016h0.321l-0.030-0.957 0.814-0.026c0.081 0.004 0.162 0.004 0.243 0zM16.035 5.158c-0.040 0.101-0.101 0.187-0.176 0.256l-0.001 0c-0.175 0.137-0.398 0.22-0.641 0.22-0.014 0-0.027-0-0.041-0.001l0.002 0-0.806 0.026-0.052-1.509 0.823-0.030c0.027-0.002 0.058-0.004 0.089-0.004 0.22 0 0.425 0.067 0.595 0.183l-0.004-0.002c0.157 0.128 0.256 0.322 0.256 0.539 0 0.005-0 0.009-0 0.013v-0.001c0.002 0.017 0.003 0.038 0.003 0.058 0 0.090-0.017 0.175-0.049 0.254l0.002-0.005zM13.186 6.724l0.065 0.272-2.088 0.487-0.693-2.939 2.028-0.47 0.061 0.267-1.733 0.401 0.247 1.043 1.525-0.358 0.065 0.267-1.529 0.354 0.26 1.090 1.794-0.413zM7.765 5.604l-0.291 0.129 1.257 2.745 1.837-0.832-0.112-0.25-1.547 0.698-1.144-2.491zM4.746 7.53l0.26-0.194 1.651 2.198 1.361-1.013 0.164 0.22-1.616 1.202-1.82-2.413zM4.022 11.651l1.010-1.34 0.867 0.181 0.203-0.267-3.262-0.699-0.187 0.254 1.603 2.909 0.199-0.267-0.434-0.772zM3.013 9.853l1.733 0.388-0.867 1.159-0.867-1.548zM2.649 12.724l-0.069 0.297 0.992 0.25c0.105 0.261 0.123 0.55 0.052 0.823-0.051 0.236-0.157 0.441-0.304 0.61l0.001-0.002c-0.147 0.16-0.334 0.281-0.542 0.349-0.099 0.029-0.213 0.045-0.331 0.045s-0.232-0.017-0.34-0.047l0.009 0.002c-0.233-0.050-0.434-0.161-0.594-0.315l0 0c-0.156-0.145-0.272-0.33-0.331-0.539l-0.002-0.008c-0.032-0.109-0.050-0.234-0.050-0.363 0-0.111 0.014-0.219 0.039-0.323l-0.002 0.009c0.065-0.356 0.275-0.654 0.566-0.833l0.005-0.003-0.156-0.237c-0.176 0.1-0.322 0.235-0.431 0.396l-0.003 0.004c-0.111 0.171-0.196 0.37-0.244 0.583l-0.002 0.012c-0.037 0.129-0.058 0.278-0.058 0.431s0.021 0.302 0.061 0.442l-0.003-0.011c0.070 0.259 0.213 0.494 0.412 0.676 0.202 0.19 0.452 0.321 0.723 0.379 0.106 0.025 0.228 0.040 0.353 0.040 0.166 0 0.327-0.026 0.478-0.073l-0.011 0.003c0.266-0.085 0.492-0.234 0.666-0.429l0.001-0.001c0.182-0.205 0.312-0.459 0.371-0.739l0.002-0.011c0.047-0.201 0.060-0.408 0.039-0.612-0.020-0.205-0.080-0.392-0.172-0.559l0.004 0.007-1.127-0.254zM18.455 6.031l-0.156 1.030-0.317-0.048 0.16-1.013-0.897-2.155 0.338 0.051 0.767 1.836 1.3-1.521 0.303 0.064-1.499 1.754zM23.117 6.337l-0.377-0.487 0.594-0.069v-0.211l-0.624 0.086 0.221-0.577-0.186-0.077-0.234 0.568-0.334-0.491-0.168 0.129 0.381 0.487-0.615 0.069v0.207l0.624-0.082-0.243 0.565 0.182 0.077 0.238-0.564 0.377 0.5 0.164-0.129zM24.186 9.323c-0.098-0.148-0.164-0.325-0.186-0.516l-0-0.005 0.256-0.112c0.019 0.171 0.075 0.336 0.164 0.483 0.097 0.165 0.223 0.311 0.373 0.431 0.154 0.147 0.351 0.242 0.563 0.272 0.013 0.001 0.028 0.002 0.043 0.002 0.146 0 0.277-0.066 0.364-0.17l0.001-0.001c0.062-0.069 0.101-0.16 0.101-0.261 0-0.011-0-0.023-0.001-0.034l0 0.001c-0.016-0.111-0.052-0.212-0.106-0.301l0.002 0.004c-0.092-0.148-0.179-0.273-0.272-0.394l0.008 0.010c-0.107-0.138-0.21-0.293-0.302-0.455l-0.010-0.019c-0.068-0.116-0.109-0.255-0.113-0.404l-0-0.001c0-0.16 0.060-0.314 0.169-0.431 0.094-0.114 0.219-0.199 0.36-0.246 0.157-0.045 0.324-0.045 0.481 0 0.202 0.066 0.389 0.171 0.55 0.31 0.133 0.11 0.251 0.238 0.351 0.379 0.092 0.131 0.161 0.277 0.204 0.431l-0.247 0.13c-0.047-0.154-0.112-0.289-0.194-0.411l0.003 0.005c-0.085-0.113-0.18-0.211-0.287-0.295l-0.003-0.003c-0.147-0.142-0.34-0.237-0.554-0.262l-0.005-0c-0.012-0.001-0.025-0.002-0.039-0.002-0.149 0-0.282 0.069-0.368 0.178l-0.001 0.001c-0.063 0.066-0.101 0.156-0.101 0.255 0 0.014 0.001 0.027 0.002 0.040l-0-0.002c0.010 0.109 0.045 0.213 0.104 0.306 0.061 0.099 0.147 0.229 0.264 0.384 0.116 0.147 0.221 0.302 0.312 0.465 0.072 0.123 0.112 0.263 0.117 0.405 0 0 0 0.001 0 0.001 0 0.166-0.064 0.317-0.169 0.43l0-0c-0.094 0.113-0.217 0.198-0.359 0.244l-0.005 0.002c-0.157 0.047-0.324 0.047-0.481 0-0.214-0.070-0.399-0.176-0.557-0.312l0.002 0.002c-0.173-0.15-0.317-0.327-0.429-0.525l-0.005-0.010zM27.934 9.091l0.611 0.862-2.257 1.586 0.182 0.263 2.262-1.573 0.611 0.862 0.226-0.16-1.408-2-0.225 0.16zM27.575 13.495c0.082-0.269 0.232-0.497 0.432-0.671l0.002-0.001c0.194-0.173 0.434-0.299 0.7-0.356l0.010-0.002c0.105-0.025 0.226-0.040 0.351-0.040 0.166 0 0.325 0.026 0.475 0.073l-0.011-0.003c0.255 0.084 0.483 0.232 0.663 0.431 0.18 0.205 0.309 0.459 0.366 0.739l0.002 0.010c0.034 0.125 0.054 0.268 0.054 0.416s-0.020 0.291-0.056 0.427l0.003-0.011c-0.084 0.268-0.234 0.496-0.432 0.671l-0.002 0.001c-0.283 0.253-0.659 0.408-1.071 0.408-0.17 0-0.333-0.026-0.487-0.075l0.011 0.003c-0.265-0.084-0.489-0.233-0.661-0.429l-0.001-0.002c-0.179-0.204-0.309-0.456-0.367-0.735l-0.002-0.010c-0.028-0.114-0.045-0.246-0.045-0.381 0-0.165 0.024-0.325 0.070-0.476l-0.003 0.012zM28.142 14.865c0.144 0.164 0.332 0.285 0.541 0.349 0.112 0.033 0.241 0.053 0.374 0.053 0.338 0 0.648-0.124 0.884-0.33l-0.002 0.001c0.16-0.147 0.278-0.333 0.342-0.539 0.032-0.111 0.050-0.238 0.050-0.369 0-0.344-0.126-0.658-0.333-0.9l0.002 0.002c-0.148-0.161-0.337-0.282-0.55-0.347l-0.009-0.002c-0.1-0.028-0.215-0.043-0.334-0.043s-0.234 0.016-0.343 0.045l0.009-0.002c-0.221 0.042-0.425 0.145-0.589 0.297-0.157 0.144-0.276 0.327-0.34 0.535l-0.002 0.008c-0.059 0.219-0.059 0.449 0 0.668 0.047 0.213 0.15 0.411 0.299 0.573zM28.368 18.067l-1.122 0.431-0.082 0.323 1.196-0.431c0.001 0.213 0.075 0.419 0.21 0.584s0.322 0.28 0.531 0.325c0.086 0.029 0.186 0.046 0.289 0.046 0.2 0 0.385-0.062 0.537-0.168l-0.003 0.002c0.252-0.196 0.432-0.473 0.501-0.793l0.002-0.009 0.295-1.091-2.929-0.78-0.083 0.306 0.919 0.237-0.212 0.78c-0.008 0.029-0.011 0.039-0.013 0.049l0.005-0.019-0.003 0.013c-0.018 0.066-0.036 0.131-0.036 0.194zM28.899 18.855c-0.082-0.064-0.15-0.143-0.2-0.233l-0.002-0.004c-0.044-0.111-0.070-0.239-0.070-0.373 0-0.121 0.021-0.237 0.059-0.345l-0.002 0.007 0.208-0.776 1.469 0.392-0.208 0.776c-0.046 0.24-0.177 0.455-0.368 0.608-0.115 0.071-0.255 0.113-0.405 0.113-0.182 0-0.349-0.062-0.482-0.166l0.002 0.001zM25.69 21.273l-0.221-0.168 1.3-1.702 2.418 1.823-1.256 1.651-0.221-0.168 1.061-1.392-0.866-0.651-0.949 1.245-0.216-0.164 0.971-1.245-0.897-0.677-1.123 1.448zM24.057 24.743l0.619-0.035-0.316 0.521 0.181 0.104 0.286-0.56 0.329 0.517 0.169-0.107-0.333-0.513h0.628v-0.211l-0.62 0.035 0.295-0.543-0.186-0.099-0.269 0.577-0.329-0.517-0.169 0.108 0.333 0.513-0.619 0.004v0.207zM19.044 24.363l0.524 0.289c0.179-0.337 0.487-0.585 0.857-0.679l0.009-0.002c0.122-0.039 0.263-0.062 0.409-0.062 0.044 0 0.087 0.002 0.13 0.006l-0.005-0c0.156 0.012 0.305 0.066 0.433 0.155 0.115 0.087 0.2 0.207 0.243 0.345 0.052 0.17 0.043 0.353-0.026 0.517-0.114 0.232-0.259 0.43-0.433 0.599l-0 0c0.143 0.076 0.275 0.17 0.395 0.28 0.082 0.084 0.142 0.186 0.178 0.297 0.011 0.042 0.018 0.091 0.018 0.141 0 0.138-0.049 0.265-0.131 0.364l0.001-0.001c-0.115 0.163-0.284 0.282-0.48 0.331l-0.006 0.001c-0.080 0.031-0.172 0.049-0.269 0.049s-0.189-0.018-0.274-0.051l0.005 0.002c-0.154-0.067-0.269-0.2-0.311-0.363l-0.001-0.004c-0.018-0.053-0.028-0.114-0.028-0.178 0-0.092 0.021-0.179 0.059-0.257l-0.002 0.003c0.099-0.196 0.229-0.375 0.385-0.53l-1.044-0.577c-0.024 0.118-0.038 0.253-0.038 0.392 0 0.079 0.004 0.157 0.013 0.233l-0.001-0.009h-0.264c-0.003-0.043-0.005-0.093-0.005-0.143 0-0.216 0.034-0.425 0.096-0.621l-0.004 0.015-0.546-0.302 0.113-0.241zM19.797 24.794l1.148 0.634c0.147-0.14 0.27-0.304 0.364-0.485l0.005-0.010c0.023-0.058 0.036-0.124 0.036-0.194s-0.013-0.136-0.037-0.198l0.001 0.004c-0.041-0.153-0.154-0.273-0.3-0.322l-0.003-0.001c-0.083-0.029-0.178-0.045-0.277-0.045s-0.195 0.017-0.284 0.047l0.006-0.002c-0.301 0.081-0.543 0.285-0.673 0.554l-0.003 0.006 0.017 0.013zM21.427 26.518c0.034-0.056 0.054-0.124 0.054-0.197 0-0.043-0.007-0.085-0.020-0.124l0.001 0.003c-0.028-0.088-0.076-0.164-0.139-0.224l-0-0c-0.105-0.088-0.223-0.167-0.349-0.232l-0.011-0.005c-0.131 0.129-0.246 0.274-0.342 0.431-0.032 0.059-0.051 0.128-0.051 0.202 0 0.042 0.006 0.082 0.017 0.12l-0.001-0.003c0.029 0.101 0.098 0.183 0.189 0.227l0.002 0.001c0.11 0.042 0.232 0.042 0.342 0 0.118-0.031 0.221-0.103 0.291-0.202l0.017 0.004zM13.823 24.669l-0.061 3.016 0.264 0.004 1.347-2.211 1.274 2.254h0.264l0.056-3.017h-0.307l-0.043 2.4-1.153-2.043h-0.152l-1.23 2.008 0.048-2.414h-0.307zM12.255 24.531c0.282 0.267 0.458 0.644 0.458 1.063 0 0.153-0.023 0.3-0.067 0.438l0.003-0.010c-0.075 0.277-0.219 0.515-0.411 0.702l-0 0c-0.187 0.183-0.424 0.316-0.688 0.377l-0.010 0.002c-0.111 0.026-0.239 0.041-0.37 0.041-0.168 0-0.329-0.024-0.482-0.070l0.012 0.003c-0.284-0.070-0.53-0.207-0.729-0.393l0.001 0.001c-0.195-0.185-0.334-0.421-0.403-0.681-0.030-0.115-0.047-0.246-0.047-0.382 0-0.445 0.184-0.847 0.48-1.135l0-0c0.184-0.183 0.415-0.318 0.674-0.386l0.010-0.002c0.11-0.026 0.237-0.041 0.367-0.041 0.167 0 0.328 0.024 0.481 0.070l-0.012-0.003c0.287 0.074 0.534 0.215 0.733 0.406l-0.001-0.001zM10.777 24.381c-0.22 0.052-0.41 0.161-0.559 0.31l-0 0c-0.16 0.158-0.273 0.356-0.329 0.573-0.029 0.099-0.045 0.212-0.045 0.33s0.017 0.231 0.047 0.339l-0.002-0.009c0.051 0.21 0.161 0.401 0.316 0.552 0.163 0.159 0.365 0.273 0.585 0.332 0.101 0.027 0.216 0.042 0.336 0.042s0.235-0.015 0.345-0.044l-0.009 0.002c0.221-0.055 0.411-0.163 0.563-0.311l-0 0c0.159-0.159 0.272-0.357 0.33-0.573 0.029-0.099 0.045-0.214 0.045-0.332s-0.017-0.232-0.048-0.34l0.002 0.009c-0.059-0.217-0.171-0.404-0.321-0.551l-0-0c-0.159-0.154-0.358-0.269-0.58-0.326l-0.009-0.002c-0.1-0.029-0.215-0.045-0.333-0.045s-0.233 0.016-0.342 0.047l0.009-0.002zM7.614 23.562l-0.117-1.185-0.307-0.198 0.125 1.267c-0.072-0.018-0.155-0.029-0.24-0.029-0.139 0-0.271 0.028-0.391 0.078l0.007-0.002c-0.196 0.093-0.352 0.242-0.452 0.426l-0.003 0.005c-0.093 0.144-0.148 0.319-0.148 0.508 0 0.111 0.019 0.218 0.055 0.317l-0.002-0.007c0.128 0.299 0.358 0.544 0.65 0.69l0.988 0.565 1.517-2.599-0.282-0.16-0.476 0.836-0.707-0.405c-0.059-0.035-0.13-0.071-0.203-0.103l-0.013-0.005zM6.723 23.872c0.083-0.063 0.179-0.109 0.281-0.134v-0.021c0.25-0.013 0.497 0.061 0.698 0.211l0.697 0.401-0.758 1.293-0.698-0.4c-0.221-0.11-0.394-0.288-0.496-0.506l-0.003-0.007c-0.020-0.065-0.031-0.14-0.031-0.218 0-0.252 0.121-0.476 0.307-0.616l0.002-0.001zM4.933 20.355l0.195-0.194 1.495 1.53-2.166 2.103-1.443-1.483 0.199-0.194 1.227 1.254 0.741-0.745-1.075-1.112 0.208-0.198 1.096 1.12 0.806-0.78-1.283-1.301zM1.817 18.067l-0.104 0.595-0.468-0.405-0.143 0.155 0.481 0.401-0.581 0.203 0.065 0.168 0.581-0.207-0.121 0.612 0.208 0.039 0.108-0.612 0.464 0.431 0.139-0.155-0.481-0.405 0.585-0.198-0.069-0.19-0.576 0.211 0.117-0.612-0.204-0.030z"></path>
      </symbol>

<!--SOCIAL ICONS-->

      <symbol id="icon-facebook" viewBox="0 0 32 32">
             <path d="M21.33 5.313h2.921V.225C23.747.156 22.014 0 19.995 0c-4.212 0-7.097 2.649-7.097 7.519V12H8.25v5.688h4.648V32h5.699V17.689h4.46l.708-5.688h-5.169V8.082c.001-1.644.444-2.769 2.735-2.769z"/>
      </symbol>

      <symbol id="icon-instagram" viewBox="0 0 32 32">
            <path d="M31.912 9.408c-.075-1.7-.35-2.869-.744-3.882a7.803 7.803 0 0 0-1.85-2.838A7.867 7.867 0 0 0 26.486.844C25.467.45 24.304.175 22.604.1 20.891.019 20.347 0 16.003 0s-4.888.019-6.595.094c-1.7.075-2.869.35-3.882.744a7.803 7.803 0 0 0-2.838 1.85A7.867 7.867 0 0 0 .844 5.52C.45 6.539.175 7.702.1 9.402c-.081 1.713-.1 2.257-.1 6.601s.019 4.888.094 6.595c.075 1.7.35 2.869.744 3.882a7.895 7.895 0 0 0 1.85 2.838 7.867 7.867 0 0 0 2.832 1.844c1.019.394 2.182.669 3.882.744 1.706.075 2.25.094 6.595.094s4.888-.019 6.595-.094c1.7-.075 2.869-.35 3.882-.744a8.184 8.184 0 0 0 4.682-4.682c.394-1.019.669-2.182.744-3.882.075-1.707.094-2.251.094-6.595s-.006-4.888-.081-6.595zm-2.881 13.065c-.069 1.563-.331 2.407-.55 2.969a5.31 5.31 0 0 1-3.038 3.038c-.563.219-1.413.481-2.969.55-1.688.075-2.194.094-6.464.094s-4.782-.019-6.464-.094c-1.563-.069-2.407-.331-2.969-.55a4.926 4.926 0 0 1-1.838-1.194 4.974 4.974 0 0 1-1.194-1.838c-.219-.563-.481-1.413-.55-2.969-.075-1.688-.094-2.194-.094-6.464s.019-4.782.094-6.464c.069-1.563.331-2.407.55-2.969a4.868 4.868 0 0 1 1.2-1.838A4.974 4.974 0 0 1 6.583 3.55c.563-.219 1.413-.481 2.969-.55 1.688-.075 2.194-.094 6.464-.094 4.276 0 4.782.019 6.464.094 1.563.069 2.407.331 2.969.55a4.914 4.914 0 0 1 1.838 1.194 4.974 4.974 0 0 1 1.194 1.838c.219.563.481 1.413.55 2.969.075 1.688.094 2.194.094 6.464s-.019 4.77-.094 6.458z"/>
            <path d="M16.22 8C11.682 8 8 11.682 8 16.22s3.682 8.22 8.22 8.22c4.539 0 8.22-3.682 8.22-8.22S20.758 8 16.22 8zm0 13.553a5.333 5.333 0 0 1 0-10.664 5.333 5.333 0 0 1 0 10.664zM26.524 7.458a1.919 1.919 0 1 1-3.838 0 1.919 1.919 0 0 1 3.838 0z"/>
      </symbol>

      <symbol id="icon-linkedin" viewBox="0 0 32 32">
            <path d="M31.992 32v-.001H32V20.263c0-5.741-1.236-10.164-7.948-10.164-3.227 0-5.392 1.771-6.276 3.449h-.093v-2.913h-6.364v21.364h6.627V21.42c0-2.785.528-5.479 3.977-5.479 3.399 0 3.449 3.179 3.449 5.657v10.401h6.62zM.528 10.636h6.635V32H.528V10.636zM3.843 0C1.722 0 0 1.721 0 3.843s1.721 3.879 3.843 3.879c2.121 0 3.843-1.757 3.843-3.879A3.846 3.846 0 0 0 3.843 0z"/>
      </symbol>

       <symbol id="icon-twitter" viewBox="0 0 32 32">
            <path d="M32 6.078c-1.19.522-2.458.868-3.78 1.036a6.523 6.523 0 0 0 2.886-3.626 13.11 13.11 0 0 1-4.16 1.588A6.574 6.574 0 0 0 22.154 3c-3.632 0-6.556 2.948-6.556 6.562 0 .52.044 1.02.152 1.496-5.454-.266-10.28-2.88-13.522-6.862a6.605 6.605 0 0 0-.898 3.316 6.57 6.57 0 0 0 2.914 5.452 6.479 6.479 0 0 1-2.964-.808v.072c0 3.188 2.274 5.836 5.256 6.446a6.548 6.548 0 0 1-1.72.216 5.8 5.8 0 0 1-1.242-.112c.85 2.598 3.262 4.508 6.13 4.57a13.182 13.182 0 0 1-8.134 2.798c-.538 0-1.054-.024-1.57-.09A18.469 18.469 0 0 0 10.064 29c12.072 0 18.672-10 18.672-18.668 0-.29-.01-.57-.024-.848A13.087 13.087 0 0 0 32 6.078z"/>
      </symbol>


<!--PLUS ICON-->

      <symbol id="icon-plus" viewBox="0 0 32 32">
                  <path d="M18.417 13.028h11.111v4.944H18.417v11.222h-4.944V17.972H2.39v-4.944h11.083V1.695h4.944v11.333z"/>
              </symbol>


<!--CONTACTS ICON-->

      <symbol id="icon-mail" viewBox="0 0 32 32">
            <path stroke-linejoin="round" stroke-linecap="round" stroke-width="1.333" d="M6.4 6.667h19.2c1.32 0 2.4 1.05 2.4 2.333v14c0 1.283-1.08 2.333-2.4 2.333H6.4C5.08 25.333 4 24.283 4 23V9c0-1.283 1.08-2.333 2.4-2.333z"/>
            <path stroke-linejoin="round" stroke-linecap="round" stroke-width="1.333" d="m26.667 9.333-10.667 8-10.667-8"/>
      </symbol>

      <symbol id="icon-map-pin" viewBox="0 0 32 32">
            <path stroke-linejoin="round" stroke-linecap="round" stroke-width="1.333" d="M26.667 13.818C26.667 21.454 16 28 16 28S5.333 21.455 5.333 13.818C5.333 8.396 10.109 4 16 4s10.667 4.396 10.667 9.818z"/>
            <path stroke-linejoin="round" stroke-linecap="round" stroke-width="1.333" d="M16 18.667a4 4 0 1 0 0-8 4 4 0 0 0 0 8z"/>
      </symbol>

      <symbol id="icon-phone" viewBox="0 0 32 32">
            <path stroke-linejoin="round" stroke-linecap="round" stroke-width="1.333" d="M26.666 21.337v3.218a2.146 2.146 0 0 1-2.338 2.145 21.239 21.239 0 0 1-9.257-3.293 20.914 20.914 0 0 1-6.436-6.436 21.221 21.221 0 0 1-3.293-9.3 2.144 2.144 0 0 1 2.134-2.338h3.218a2.144 2.144 0 0 1 2.145 1.845c.136 1.03.388 2.041.751 3.014a2.144 2.144 0 0 1-.483 2.263l-1.362 1.362a17.162 17.162 0 0 0 6.436 6.436l1.362-1.362a2.146 2.146 0 0 1 2.263-.483c.973.363 1.984.615 3.014.751a2.144 2.144 0 0 1 1.845 2.177z"/>
      </symbol>

      
     
</defs>
</svg>
